<?xml version="1.0" encoding="UTF-8" standalone="no"?>
<svg
   width="800px"
   height="800px"
   viewBox="0 0 16 16"
   version="1.1"
   xmlns="http://www.w3.org/2000/svg"
   xmlns:svg="http://www.w3.org/2000/svg">
  <path d="m 8,10.4142 c 0.55228,0 1,-0.44772 1,-1 V 4.82841 l 1.2929,1.2929 c 0.3905,0.39052 1.0237,0.39052 1.4142,0 0.3905,-0.39053 0.3905,-1.02369 0,-1.41422 L 8,1 4.29289,4.70709 c -0.39052,0.39053 -0.39052,1.02369 0,1.41422 0.39053,0.39052 1.02369,0.39052 1.41422,0 L 7,4.82841 V 9.4142 c 0,0.55228 0.44772,1 1,1 z" id="path943" />
  <path d="m 14,9 c 0.5523,0 1,0.44772 1,1 v 3 c 0,1.1046 -0.8954,2 -2,2 H 3 C 1.89543,15 1,14.1046 1,13 V 10 C 1,9.44772 1.44772,9 2,9 2.55228,9 3,9.44771 3,10 v 3 h 10 v -3 c 0,-0.55229 0.4477,-1 1,-1 z" id="path2" />
</svg>
